HIERARCHY
ROOT Hips
{
	OFFSET	0.00	0.00	0.00
	CHANNELS 6 Xposition Yposition Zposition Zrotation Xrotation Yrotation
	JOINT LeftUpLeg
	{
		OFFSET	 0.126116	-0.014019	-0.065224
		CHANNELS 3 Zrotation Xrotation Yrotation
		JOINT LeftLeg
		{
			OFFSET	 0.000000	 0.000000	 0.569914
			CHANNELS 3 Zrotation Xrotation Yrotation
			JOINT LeftFoot
			{
				OFFSET	 0.000000	 0.000000	 0.544423
				CHANNELS 3 Zrotation Xrotation Yrotation
				JOINT LeftToeBase
				{
					OFFSET	 0.000000	 0.000000	 0.207117
					CHANNELS 3 Zrotation Xrotation Yrotation
					End Site
					{
						OFFSET	 0.000000	 0.000000	 0.207117
					}
				}
			}
		}
	}
	JOINT RightUpLeg
	{
		OFFSET	-0.124023	-0.008373	-0.065224
		CHANNELS 3 Zrotation Xrotation Yrotation
		JOINT RightLeg
		{
			OFFSET	 0.000000	 0.000000	 0.570047
			CHANNELS 3 Zrotation Xrotation Yrotation
			JOINT RightFoot
			{
				OFFSET	 0.000000	 0.000000	 0.544354
				CHANNELS 3 Zrotation Xrotation Yrotation
				JOINT RightToeBase
				{
					OFFSET	 0.000000	 0.000000	 0.207540
					CHANNELS 3 Zrotation Xrotation Yrotation
					End Site
					{
						OFFSET	 0.000000	 0.000000	 0.207540
					}
				}
			}
		}
	}
	JOINT Spine
	{
		OFFSET	 0.000184	-0.007763	 0.117403
		CHANNELS 3 Zrotation Xrotation Yrotation
		JOINT Spine1
		{
			OFFSET	 0.000000	 0.000000	 0.137269
			CHANNELS 3 Zrotation Xrotation Yrotation
			JOINT Spine2
			{
				OFFSET	 0.000000	 0.000000	 0.156879
				CHANNELS 3 Zrotation Xrotation Yrotation
				JOINT LeftShoulder
				{
					OFFSET	 0.080501	-0.002496	 0.160144
					CHANNELS 3 Zrotation Xrotation Yrotation
					JOINT LeftArm
					{
						OFFSET	 0.000000	 0.000000	 0.164363
						CHANNELS 3 Zrotation Xrotation Yrotation
						JOINT LeftForeArm
						{
							OFFSET	 0.000000	 0.000000	 0.364576
							CHANNELS 3 Zrotation Xrotation Yrotation
							JOINT LeftHand
							{
								OFFSET	 0.000000	 0.000000	 0.360812
								CHANNELS 3 Zrotation Xrotation Yrotation
								JOINT LeftHandIndex1
								{
									OFFSET	 0.000000	 0.000000	 0.086006
									CHANNELS 3 Zrotation Xrotation Yrotation
									JOINT LeftHandIndex2
									{
										OFFSET	 0.000000	 0.000000	 0.047236
										CHANNELS 3 Zrotation Xrotation Yrotation
										JOINT LeftHandIndex3
										{
											OFFSET	-0.004284	-0.000551	 0.038166
											CHANNELS 3 Zrotation Xrotation Yrotation
											End Site
											{
												OFFSET	-0.004284	-0.000551	 0.038166
											}
										}
									}
								}
							}
						}
					}
				}
				JOINT Neck
				{
					OFFSET	 0.000000	 0.000000	 0.176489
					CHANNELS 3 Zrotation Xrotation Yrotation
					JOINT Head
					{
						OFFSET	 0.000000	-0.001747	 0.077940
						CHANNELS 3 Zrotation Xrotation Yrotation
						End Site
						{
							OFFSET	 0.000000	-0.001747	 0.077940
						}
					}
				}
				JOINT RightShoulder
				{
					OFFSET	-0.080363	 0.000306	 0.159706
					CHANNELS 3 Zrotation Xrotation Yrotation
					JOINT RightArm
					{
						OFFSET	 0.000000	 0.000000	 0.164196
						CHANNELS 3 Zrotation Xrotation Yrotation
						JOINT RightForeArm
						{
							OFFSET	 0.000000	 0.000000	 0.365611
							CHANNELS 3 Zrotation Xrotation Yrotation
							JOINT RightHand
							{
								OFFSET	 0.000000	 0.000000	 0.360648
								CHANNELS 3 Zrotation Xrotation Yrotation
								JOINT RightHandIndex1
								{
									OFFSET	 0.000000	 0.000000	 0.069977
									CHANNELS 3 Zrotation Xrotation Yrotation
									JOINT RightHandIndex2
									{
										OFFSET	 0.000000	 0.000000	 0.052305
										CHANNELS 3 Zrotation Xrotation Yrotation
										JOINT RightHandIndex3
										{
											OFFSET	 0.009002	-0.000782	 0.042196
											CHANNELS 3 Zrotation Xrotation Yrotation
											End Site
											{
												OFFSET	 0.009002	-0.000782	 0.042196
											}
										}
									}
								}
							}
						}
					}
				}
			}
		}
	}
}
MOTION
Frames:    7
Frame Time: 0.03333334
 0.002362	-1.695784	 1.121903	-9.721781	 3.368761	 0.235707	 2.569541	-34.862410	 172.724800	-4.753445	-65.557560	-4.821985	 175.711100	 87.912030	-178.116700	-2.347178	 34.839950	-0.145034	 0.580491	-36.326270	-177.503500	 1.216017	-69.210890	 4.262036	-176.695100	 86.266400	 178.587600	 2.406290	 20.246680	-0.168204	-7.298302	 13.672720	 2.258968	-11.185910	 6.684947	-1.439618	-12.802510	 3.368674	-0.472979	-124.612500	 89.407520	-143.819000	 46.430900	 61.089230	-75.594230	-13.170290	-2.372797	-18.755000	-1.472980	-30.118060	-6.189826	-3.812334	 37.924440	-2.927599	-2.450526	 36.184240	 0.754587	-1.378229	 35.397820	-2.634230	 1.838454	 2.199476	-3.028618	-2.494750	 6.517684	 4.363749	 94.284360	 86.027080	 170.960800	-54.018110	 71.060280	 72.926740	-6.494349	-12.073950	 20.258300	-22.439510	-30.788340	 11.097350	 6.437017	 35.671460	-0.771858	 2.830251	 35.756010	-7.813440	-2.350882	 35.473990	 5.254307
 0.007435	-1.692897	 1.140660	-11.395750	 5.645299	-0.355781	 3.412565	-35.581700	 173.489900	-4.230371	-62.771620	-3.546229	 169.521000	 89.110440	-171.535800	-2.362372	 32.730370	-0.095427	 1.619521	-37.794290	-177.030900	-0.586193	-66.705560	 3.197382	-173.130300	 87.790960	 174.745000	 2.406997	 19.429330	-0.184405	-7.176064	 13.880230	 2.468473	-10.925290	 6.388160	-1.292500	-12.404210	 2.940931	-0.504628	-119.294400	 89.315860	-149.158500	 43.547550	 60.818450	-74.368630	-13.566750	-2.359890	-17.510170	-0.972073	-28.171070	-6.067870	-3.812334	 37.924440	-2.927599	-2.450526	 36.184240	 0.754587	-1.378229	 35.397820	-2.634230	 2.152190	 1.922458	-2.873122	-2.213713	 6.202783	 5.194910	 94.475530	 86.080880	 170.673600	-53.824780	 71.906280	 72.060860	-6.595795	-11.634360	 19.071950	-23.321280	-28.849770	 10.861740	 6.437017	 35.671460	-0.771858	 2.830251	 35.756010	-7.813440	-2.350882	 35.473990	 5.254307
 0.010721	-1.692479	 1.155972	-12.392700	 7.385738	-0.675899	 4.332804	-35.873340	 174.031900	-3.810409	-60.184250	-2.380790	 69.549350	 89.829830	-71.087830	-2.369166	 31.654030	-0.070809	 1.761251	-38.320350	-176.592100	-2.287533	-64.153670	 1.611199	-167.014400	 88.837020	 168.005300	 2.407058	 19.339210	-0.186187	-7.269061	 14.355590	 2.567230	-10.884800	 6.560569	-1.152335	-12.156070	 2.884909	-0.500423	-118.148500	 89.319590	-150.449300	 41.287750	 61.040630	-74.756230	-13.737490	-2.594929	-15.911020	 0.616781	-25.780230	-5.921128	-3.812334	 37.924440	-2.927599	-2.450526	 36.184240	 0.754587	-1.378229	 35.397820	-2.634230	 2.236031	 1.933671	-2.703928	-1.994245	 6.062164	 5.195170	 94.677070	 86.150810	 170.402000	-52.629260	 73.136510	 69.994140	-7.061409	-11.003050	 17.154110	-24.901240	-26.464370	 10.577920	 6.437017	 35.671460	-0.771858	 2.830251	 35.756010	-7.813440	-2.350882	 35.473990	 5.254307
 0.010758	-1.692650	 1.165434	-12.052570	 8.445668	-0.694416	 4.461925	-36.303700	 174.153600	-3.153585	-58.645830	-1.646748	 17.622960	 89.476230	-18.795030	-2.368768	 31.720240	-0.072307	 1.093860	-38.537340	-176.581100	-1.989194	-62.488230	 1.324488	-158.751100	 89.287280	 159.641900	 2.406438	 20.093570	-0.171243	-7.610937	 14.569430	 2.514179	-11.104690	 6.819703	-1.364328	-12.105830	 3.055899	-0.480211	-127.139800	 89.501500	-141.657500	 40.862230	 61.202980	-76.287740	-14.315480	-2.650237	-15.513460	 1.224720	-23.534830	-5.808706	-3.812334	 37.924440	-2.927599	-2.450526	 36.184240	 0.754587	-1.378229	 35.397820	-2.634230	 2.022902	 2.031628	-2.863724	-1.878011	 6.098341	 4.912636	 94.459370	 85.971340	 170.510100	-50.071980	 74.697150	 66.375960	-7.157904	-10.495180	 15.588220	-26.435830	-24.245900	 10.337580	 6.437017	 35.671460	-0.771858	 2.830251	 35.756010	-7.813440	-2.350882	 35.473990	 5.254307
 0.008397	-1.697976	 1.172987	-11.235510	 9.187704	-0.674274	 4.233531	-36.287000	 174.105100	-2.364748	-57.493810	-1.094734	 10.844600	 89.137700	-11.707360	-2.374579	 30.715920	-0.049707	 0.775849	-38.209900	-176.855400	-0.451567	-61.321940	 2.432266	-151.090700	 89.466250	 152.621700	 2.401874	 23.076180	-0.111310	-7.901144	 14.529140	 2.540656	-11.270520	 7.017661	-1.611376	-12.007360	 3.242128	-0.456692	-172.185900	 89.715390	-96.789390	 42.971760	 60.783020	-79.087700	-14.292670	-2.719793	-16.993520	 1.244907	-20.578510	-5.698960	-3.812334	 37.924440	-2.927599	-2.450526	 36.184240	 0.754587	-1.378229	 35.397820	-2.634230	 1.729746	 1.942883	-3.094278	-1.767222	 6.130307	 4.236662	 94.077660	 85.671700	 170.764900	-46.868970	 76.287580	 61.667640	-7.030161	-10.107570	 14.489250	-27.792970	-21.375230	 10.088070	 6.437017	 35.671460	-0.771858	 2.830251	 35.756010	-7.813440	-2.350882	 35.473990	 5.254307
 0.006444	-1.702823	 1.175619	-10.794800	 9.400931	-0.779915	 4.100306	-36.042320	 174.229700	-2.166405	-56.966230	-1.015687	 9.249141	 88.994970	-10.073530	-2.375021	 30.636950	-0.047937	 0.885218	-37.884230	-176.889600	 0.225178	-60.926160	 3.098034	-159.514700	 89.280450	 161.448500	 2.398782	 24.370950	-0.084780	-7.928247	 14.321340	 2.741476	-11.225650	 7.016997	-1.665537	-11.866290	 3.261375	-0.449287	 157.317000	 89.705250	-66.363210	 44.957320	 60.260900	-81.053400	-14.101220	-2.702895	-18.306500	 0.961288	-18.793760	-5.644989	-3.812334	 37.924440	-2.927599	-2.450526	 36.184240	 0.754587	-1.378229	 35.397820	-2.634230	 1.614619	 1.876005	-3.287065	-1.698660	 6.014624	 4.021449	 93.875630	 85.528100	 170.947100	-46.181490	 76.791150	 60.067080	-6.934755	-10.008400	 14.332680	-28.117460	-19.644510	 9.971212	 6.437017	 35.671460	-0.771858	 2.830251	 35.756010	-7.813440	-2.350882	 35.473990	 5.254307
 0.003787	-1.710296	 1.177521	-9.978046	 9.495524	-0.730510	 3.864180	-35.676010	 174.234200	-1.806935	-56.437630	-0.874721	 9.388628	 89.062260	-10.140990	-2.374103	 30.801480	-0.051617	 0.722272	-37.319400	-177.021300	 0.736744	-60.520970	 3.431122	-167.359500	 88.917000	 169.527300	 2.399193	 24.217100	-0.087949	-7.915311	 14.054020	 2.695971	-11.125120	 7.041713	-1.705768	-11.639750	 3.309221	-0.435772	 141.279500	 89.666030	-50.444950	 47.533740	 59.533930	-83.408330	-13.270590	-2.759398	-19.327300	 1.094960	-16.389240	-5.574386	-3.812334	 37.924440	-2.927599	-2.450526	 36.184240	 0.754587	-1.378229	 35.397820	-2.634230	 1.482051	 1.800511	-3.483597	-1.652925	 6.052715	 4.006606	 93.832080	 85.510140	 171.011400	-46.711100	 76.922260	 59.676980	-7.413202	-10.067030	 14.335010	-28.713460	-17.288480	 9.829154	 6.437017	 35.671460	-0.771858	 2.830251	 35.756010	-7.813440	-2.350882	 35.473990	 5.254307
